<svg fill="none" height="800" viewBox="0 0 24 24" width="800" xmlns="http://www.w3.org/2000/svg"><path d="m14.3308 15.9402 1.33-1.3301c.2047-.2071.4484-.3717.717-.4839.2687-.1122.5569-.1699.848-.1699.2912 0 .5794.0577.8481.1699.2686.1122.5123.2768.7169.4839l1.56 1.5601c.2071.2046.3716.4481.4838.7168.1122.2686.17.557.17.8481 0 .2912-.0578.5795-.17.8482-.1122.2686-.2767.5121-.4838.7167l-.71.72c-.4892.494-1.1219.821-1.8079.9341s-1.3902.0068-2.0121-.304c-5.3517-2.7549-9.71072-7.1105-12.46997-12.45991-.31107-.62258-.41669-1.32777-.30169-2.01416.115-.6864.4447-1.31872.94171-1.80591l.70996-.71997c.41593-.41342.97856-.64551 1.565-.64551s1.14907.23209 1.565.64551l1.57001 1.57006c.41342.41594.64548.9785.64548 1.56495 0 .58644-.23206 1.149-.64548 1.56494l-1.33002 1.33008c.87941 1.18952 1.84537 2.31242 2.89 3.35982 1.0386 1.0404 2.1552 2 3.34 2.8702z" stroke="#000" stroke-linecap="round" stroke-linejoin="round" stroke-width="1.5"/></svg>