<svg fill="none" height="800" viewBox="0 0 24 24" width="800" xmlns="http://www.w3.org/2000/svg"><path clip-rule="evenodd" d="m11.9 3c0-.27614.2239-.5.5-.5h2.8c.2597 0 .4762.19883.4982.4576.1474 1.73234.9028 2.73733 1.753 3.31549.8721.5931 1.8809.76029 2.5266.73155.2758-.01228.5094.2014.5217.47727s-.2014.50946-.4773.52174c-.8209.03654-2.0522-.16836-3.1334-.90366-1.0177-.69215-1.8722-1.83497-2.1339-3.59999h-1.8549v10.4666c0 1.698-.6723 2.984-1.6516 3.6725-.9814.69-2.24316.7478-3.2527.0166-1.25133-.9064-1.4673-2.3312-.96543-3.4544.43578-.9753 1.41048-1.7238 2.66973-1.7469v-2.2796c-.91491.0595-2.08993.2928-3.08609.9118-1.15411.7172-2.11391 1.9769-2.11391 4.2508 0 1.4713.39793 2.5215.98366 3.2717.58922.7547 1.3983 1.2436 2.27931 1.536.88281.2929 1.82108.3824 2.63453.3479.8274-.0351 1.4675-.1957 1.7715-.354 1.2389-.6454 1.9403-1.2825 2.3531-2.0913.4216-.8259.5779-1.8977.5779-3.4936v-5.4833c0-.17254.089-.3329.2354-.42422.1464-.09133.3295-.10072.4845-.02485.6257.30637 2.378.97536 4.2208 1.12572.2752.02246.4801.26375.4576.53905-.0224.2752-.2637.4801-.539.4576-1.5051-.1228-2.9405-.5591-3.8593-.91484v4.72484c0 1.6327-.1537 2.9031-.6872 3.9482-.5422 1.0623-1.4408 1.825-2.7818 2.5236-.4887.2545-1.2949.4282-2.1911.4662-.91025.0386-1.9729-.0598-2.99191-.3979-1.02082-.3388-2.01448-.9244-2.75254-1.8697-.74156-.9497-1.19545-2.225-1.19545-3.8871 0-2.6218 1.14021-4.2017 2.58611-5.1001 1.41056-.87655 3.0661-1.079 4.11389-1.079.2761 0 .5.22386.5.5v3.3291c0 .1457-.0635.284-.1738.379-.1104.095-.2567.1372-.4007.1155-1.06522-.1605-1.85491.3948-2.18223 1.1273-.32547.7284-.19695 1.6311.63903 2.2366.63399.4592 1.4278.4415 2.0909-.0247.6654-.4679 1.2268-1.4192 1.2268-2.8545z" fill="#000" fill-rule="evenodd"/></svg>