<svg fill="none" height="800" viewBox="0 0 24 24" width="800" xmlns="http://www.w3.org/2000/svg"><g fill="#1c274c"><path clip-rule="evenodd" d="m6.5 1.75c0-.41421-.33579-.75-.75-.75s-.75.33579-.75.75v20c0 .4142.33579.75.75.75s.75-.3358.75-.75v-8.15-10z" fill-rule="evenodd" opacity=".5"/><path d="m13.5582 3.87333-.4133-.16532c-1.5628-.62513-3.2737-.78221-4.92423-.4521l-1.72067.34413v9.99996l1.72067-.3441c1.65053-.3301 3.36143-.173 4.92423.4521 1.6936.6774 3.5575.8039 5.3271.3615l.1001-.025c.5861-.1465.864-.8176.5532-1.3356l-1.5606-2.6011c-.3415-.56913-.5123-.85371-.5528-1.16325-.0168-.12912-.0168-.25989 0-.38902.0405-.30954.2113-.59412.5528-1.16328l1.2785-2.13089c.3346-.55772-.1721-1.2416-.8031-1.08385-1.4888.3722-3.057.26577-4.4819-.30418z"/></g></svg>