<svg width="127" height="127" viewBox="0 0 127 127" fill="none" xmlns="http://www.w3.org/2000/svg">
<mask id="mask0_13_25" style="mask-type:luminance" maskUnits="userSpaceOnUse" x="0" y="0" width="127" height="127">
<path fill-rule="evenodd" clip-rule="evenodd" d="M0 0H126.577V126.995H0V0Z" fill="white"/>
</mask>
<g mask="url(#mask0_13_25)">
<path fill-rule="evenodd" clip-rule="evenodd" d="M126.576 63.4998C126.576 28.4298 98.2288 0 63.2592 0C28.2951 0 -0.0488434 28.4298 -0.0488434 63.4998C-0.0488434 98.5667 28.2951 126.995 63.2592 126.995C98.2288 126.995 126.576 98.5667 126.576 63.4998" fill="#F40000"/>
</g>
<path fill-rule="evenodd" clip-rule="evenodd" d="M87.1521 47.5417C87.1521 47.5417 85.0288 48.4265 82.5594 51.2469C80.0853 54.082 78.6558 57.2454 79.721 58.0892C80.1278 58.4101 81.0669 58.4649 82.7841 56.8681C84.1158 55.6216 85.4719 53.992 86.3999 51.657C87.4982 48.8595 87.1521 47.5794 87.1521 47.5417V47.5417ZM100.659 52.6211C97.9184 51.1618 95.9212 49.3792 93.8295 48.2644C91.8347 47.2037 90.5527 46.7675 88.9443 46.9901C88.677 47.0245 88.2804 47.1571 88.2804 47.1571C88.2804 47.1571 89.1114 50.0937 85.8165 55.0315C82.475 60.0347 79.4506 60.0101 78.5888 58.6228C77.6876 57.1742 78.8482 54.2155 80.7957 51.5874C82.8283 48.8374 86.4062 46.5465 86.4062 46.5465C86.4062 46.5465 85.263 45.8254 82.4593 47.4746C79.7312 49.0788 75.0242 52.8994 70.6641 59.3513C66.3071 65.7934 65.4422 69.3438 64.8138 72.1323C64.1815 74.9257 64.7594 77.9139 67.7413 77.9139C70.7319 77.9139 74.1971 73.1906 75.1748 71.5471C76.9867 68.4861 78.1764 63.7996 75.7031 64.4462C74.481 64.7629 73.4915 66.1682 72.8678 67.5187C72.2284 68.9068 71.9745 70.2302 71.9745 70.2302C71.9745 70.2302 70.9432 70.6133 69.5555 71.6895C68.1726 72.7642 67.2698 73.7971 67.2698 73.7971C67.2698 73.7971 67.2769 71.5684 68.9886 67.9516C70.7019 64.3406 73.8494 62.6898 75.625 62.5359C77.235 62.3992 79.3236 63.8127 77.5528 69.0353C75.7858 74.2611 70.5695 80.5968 65.0795 80.6811C60.0208 80.7589 56.7022 74.0491 63.7423 62.3386C71.5267 49.3931 80.6845 45.4203 83.6585 44.9775C86.6302 44.5306 87.5921 45.8909 87.5921 45.8909C87.5921 45.8909 90.0796 44.6992 93.2382 44.9186C96.869 45.1748 99.6743 47.838 103.373 49.7057C102.408 50.6797 101.492 51.6815 100.659 52.6211V52.6211ZM116.954 48.252C114.449 49.9323 110.962 51.4489 107.621 51.115C106.776 52.0243 105.874 53.0736 104.959 54.2219C110.764 55.4095 115.833 51.6814 118.536 48.5025C120.22 46.5194 121.05 44.7499 121.05 44.7499C121.05 44.7499 119.44 46.5906 116.954 48.252V48.252ZM109.249 65.2106C109.323 65.0813 109.352 64.961 109.352 64.961C109.352 64.961 109.286 64.4536 108.822 64.4331C108.269 64.4077 107.519 64.5166 105.545 66.7862C103.58 69.0459 102.383 71.0102 101.349 72.9737C100.217 75.1222 99.765 76.7157 100.414 77.1274C100.597 77.2412 100.876 77.2543 101.098 77.1978C101.538 77.0881 102.036 76.6633 102.799 75.7507C103.153 75.3276 103.549 74.7219 104.016 74.0492C105.317 72.2011 108.595 66.386 109.249 65.2106V65.2106ZM88.731 67.6921C89.0622 66.7967 89.4816 65.0419 88.6025 64.352C87.6682 63.6186 85.2816 65.3415 85.2666 67.0963C85.2532 68.9067 86.9523 69.7194 87.3591 69.8299C87.5925 69.8962 87.6706 69.8888 87.7865 69.6949C87.8582 69.5672 88.4015 68.5891 88.731 67.6921V67.6921ZM86.9288 70.9742C86.8617 70.9512 86.0922 70.5805 85.2864 69.8889C84.4822 69.1916 84.0769 68.3968 84.0478 68.3354C84.0178 68.2757 83.9792 68.3207 83.9453 68.3747C83.9059 68.4238 83.7639 68.5499 82.4859 70.5011C81.2141 72.4425 79.2603 76.4554 81.0327 77.1339C82.1642 77.5701 84.0557 75.5109 85.0854 74.1432C86.0394 72.8697 86.9351 71.2573 86.984 71.1419C87.0352 71.0265 86.9887 70.9954 86.9288 70.9742V70.9742ZM107.017 75.6001C106.533 76.3965 105.99 77.9278 107.579 76.976C109.509 75.8113 112.264 71.4743 112.264 71.4743H113.508C113.508 71.4743 111.87 74.1711 109.729 76.6306C107.765 78.883 105.378 80.9365 103.694 80.736C101.726 80.497 102.34 77.8149 102.34 77.8149C102.34 77.8149 99.5191 80.9275 97.5748 80.7065C94.95 80.4061 95.7479 77.0292 95.7479 77.0292C95.7479 77.0292 92.7739 80.8268 90.7507 80.7065C87.5749 80.5166 88.3688 76.4882 89.2519 73.6759C89.7273 72.1651 90.1665 70.9767 90.1665 70.9767C90.1665 70.9767 89.848 71.0642 89.1738 71.1649C88.8182 71.2189 88.1733 71.2574 88.1733 71.2574C88.1733 71.2574 86.8519 73.6825 85.7953 75.1377C84.7357 76.5978 80.2431 81.6166 77.5923 80.6148C75.1458 79.6851 75.9516 75.7949 77.3779 72.7052C79.4538 68.1996 85.2986 61.7174 88.6747 62.5662C92.166 63.4485 88.7536 70.0714 88.7536 70.0714C88.7536 70.0714 88.756 70.0968 88.7914 70.1091C88.864 70.1386 89.043 70.1574 89.464 70.0747C90.1389 69.9405 90.7452 69.6769 90.7452 69.6769C90.7452 69.6769 94.2562 62.0383 98.1393 57.0326C102.018 52.0343 109.761 43.4208 112.805 45.5021C113.549 46.012 113.21 47.7775 112.21 49.921C111.77 50.0626 111.309 50.1936 110.839 50.2918C111.507 49.0313 111.955 47.969 112.085 47.2242C112.538 44.6444 106.733 50.0888 102.58 55.9481C98.4342 61.8099 95.9427 67.1176 95.9427 67.1176C95.9427 67.1176 96.7832 66.6257 98.0872 65.5355C99.4473 64.3954 101.318 62.6096 103.357 60.4218C104.728 58.9568 106.338 57.1071 107.844 55.0446C108.291 55.0208 108.734 54.975 109.162 54.9046C107.486 57.2552 105.715 59.4012 104.214 60.9808C102.566 62.7184 100.771 64.5886 99.2108 65.9538C96.7327 68.1137 94.8207 69.3438 94.8207 69.3438C94.8207 69.3438 91.1828 76.935 93.1563 77.4294C94.3216 77.715 96.6097 74.0491 96.6097 74.0491C96.6097 74.0491 99.6011 69.3062 101.404 67.1741C103.864 64.2669 105.98 62.5899 108.097 62.5547C109.33 62.5326 110.056 63.8978 110.056 63.8978L110.637 62.9648H114.216C114.216 62.9648 107.549 74.7121 107.017 75.6001V75.6001ZM66.81 54.0468H63.415L61.499 57.2707H64.8925L66.81 54.0468ZM50.7381 65.1992C52.181 63.1448 56.1634 55.9432 56.1634 55.9432C56.1634 55.9432 56.0988 55.4366 55.6336 55.4121C55.0809 55.385 54.1679 55.5798 52.3371 57.9542C50.5047 60.3294 49.0934 62.2249 48.0598 64.1884C46.9283 66.3368 46.4292 67.8453 47.0837 68.261C47.2618 68.3748 47.5417 68.3879 47.7657 68.3322C48.1898 68.2226 48.7425 67.7798 49.5042 66.8672C49.8621 66.4416 50.2611 65.8769 50.7381 65.1992V65.1992ZM32.5093 55.4694C31.5687 54.7328 29.1797 56.4532 29.171 58.2177C29.1552 60.0216 31.3266 60.5356 31.6033 60.5495C31.6033 60.5495 31.8501 60.6183 31.9479 60.4039C32.0102 60.2737 32.3027 59.7049 32.6331 58.8136C32.9618 57.9125 33.3821 56.1577 32.5093 55.4694V55.4694ZM31.0913 61.6838C31.029 61.6617 30.1302 61.3941 29.2519 60.8081C28.3759 60.2245 27.9683 59.3586 27.9336 59.2964C27.9028 59.2375 27.8658 59.2841 27.8303 59.334C27.7948 59.3872 27.6087 59.6393 26.3307 61.5807C25.0549 63.527 23.1698 67.5096 24.939 68.1889C26.0705 68.626 27.9769 66.5545 29.009 65.1885C29.9646 63.919 31.1023 61.9678 31.1536 61.85C31.2001 61.7329 31.1536 61.7067 31.0913 61.6838V61.6838ZM58.8455 62.8698H60.0873C60.0873 62.8698 53.8578 72.2231 50.3303 71.8008C48.367 71.5684 48.9505 69.0434 48.9505 69.0434C48.9505 69.0434 46.1799 72.404 43.6529 71.7312C41.3514 71.1198 42.8345 67.1462 42.8345 67.1462C42.5735 67.2575 37.5937 73.0882 34.0969 71.6895C30.4417 70.2294 32.3331 65.3481 33.0341 63.8798C33.6199 62.6423 34.2735 61.4383 34.2735 61.4383C34.2735 61.4383 33.709 61.6053 33.3644 61.6863C33.0128 61.7714 32.483 61.8778 32.483 61.8778C32.483 61.8778 30.7515 64.7989 29.6918 66.2598C28.6377 67.7134 24.1396 72.7322 21.4904 71.7312C18.842 70.7311 19.4925 66.8843 20.9866 63.8257C23.3984 58.8643 29.1234 52.7733 32.5736 53.6859C36.0586 54.6058 33.1776 60.4766 33.1776 60.4766C33.1776 60.4766 33.8683 60.574 35.5272 59.3922C37.924 57.6996 41.0794 53.1383 44.5013 53.6744C46.1018 53.9216 47.6014 55.6338 45.5562 58.8806C44.9002 59.9242 43.8027 60.8564 42.9583 59.934C42.4363 59.3684 42.8881 58.3208 43.4416 57.6046C44.2166 56.5898 45.2858 56.7256 45.2858 56.7256C45.2858 56.7256 45.8495 55.3793 44.4185 55.4079C43.2524 55.4308 40.313 58.2447 38.6486 61.0905C37.1245 63.7005 34.816 68.1513 37.1356 69.1187C39.2636 70.01 43.3036 65.0207 45.1801 62.4098C47.0535 59.7973 51.3198 53.8725 54.8962 53.6319C56.1238 53.5451 56.8618 54.7122 56.8618 54.7122L57.2765 54.0313H60.8497C60.8497 54.0313 54.1109 65.7229 53.5834 66.6061C53.1687 67.3001 52.6223 68.8568 54.1448 67.9819C55.6736 67.1061 58.8455 62.8698 58.8455 62.8698V62.8698ZM56.8992 81.5945C54.1909 79.6195 50.8944 78.7462 47.8967 78.8739C44.8682 78.9967 43.5066 81.3432 43.5066 81.3432C42.1371 78.8739 39.4398 77.3532 35.2634 77.3892C28.5198 77.4711 21.829 80.7064 16.5267 80.7064C11.4388 80.7064 7.73154 77.3892 7.85453 71.4996C8.06742 61.1715 16.4715 51.8656 22.757 47.6743C26.3649 45.268 29.3926 44.5511 31.3724 44.7794C32.8144 44.9488 34.5475 46.679 33.457 49.2269C31.8494 52.9656 29.6299 52.6497 29.708 50.8646C29.7545 49.7057 30.4972 48.974 31.0578 48.5754C31.4157 48.3217 32.0426 48.2488 32.365 48.2415C32.682 47.9624 32.9256 45.9187 30.3364 46.5931C27.7495 47.2692 24.6351 49.9054 21.6666 53.3036C18.6957 56.7076 14.0754 63.1562 12.9353 69.9183C12.4031 73.0596 12.761 78.7716 19.9178 78.702C25.9873 78.6505 34.9425 74.5017 43.1676 74.5746C46.3616 74.6032 49.1401 75.4961 51.3091 76.8867C53.4426 78.2543 55.9972 80.2391 56.8992 81.5945V81.5945Z" fill="#FFFFFE"/>
</svg>
