<svg width="85" height="86" viewBox="0 0 85 86" fill="none" xmlns="http://www.w3.org/2000/svg">
<g clip-path="url(#clip0_278_45913)">
<path d="M79.8134 27.1249H79.8123H67.348H66.4821L66.9149 27.8748C69.5561 32.4512 70.6132 37.7713 69.9223 43.0097C69.2314 48.2482 66.8311 53.1123 63.0936 56.8473L63.0901 56.851C59.8671 60.1382 55.6586 63.2643 50.993 66.1576C50.7958 66.2771 50.5643 66.3272 50.3353 66.2996C50.1057 66.2721 49.8921 66.1681 49.7287 66.0045L49.7285 66.0043L36.3913 52.6672C36.3913 52.6672 36.3913 52.6672 36.3913 52.6671C36.0538 52.3296 35.652 52.0633 35.2096 51.8841C34.7672 51.7048 34.2933 51.6163 33.8161 51.6238C33.3388 51.6313 32.8679 51.7346 32.4313 51.9276C31.9948 52.1206 31.6014 52.3994 31.2747 52.7474L31.2746 52.7472L31.266 52.7569C30.6397 53.4595 30.3091 54.3768 30.343 55.3173C30.3768 56.2566 30.7716 57.1465 31.445 57.8019C31.446 57.8029 31.4469 57.8038 31.4478 57.8047L42.8811 69.238L42.8814 69.2383C42.9964 69.3532 43.0827 69.4936 43.1332 69.6482C43.1836 69.8027 43.1968 69.967 43.1717 70.1276C43.1466 70.2883 43.0838 70.4407 42.9885 70.5724C42.8933 70.7042 42.7682 70.8115 42.6236 70.8857L42.6214 70.8869C27.4595 78.7599 11.1315 84.0132 8.75893 84.7532L8.72699 84.7632L8.69667 84.7773C7.6506 85.2646 6.47996 85.4184 5.34351 85.2178C4.20707 85.0172 3.15983 84.4719 2.34382 83.6559C1.52781 82.8399 0.982527 81.7927 0.781928 80.6562C0.581329 79.5198 0.735122 78.3491 1.22245 77.3031L1.23643 77.2731L1.24633 77.2415C1.7661 75.5832 4.53604 66.9606 8.88818 56.6971C13.2445 46.4236 19.1675 34.5512 25.9826 26.364C26.0743 26.2544 26.1879 26.165 26.3161 26.1017C26.4445 26.0382 26.5847 26.0021 26.7278 25.9958C26.8709 25.9895 27.0138 26.0131 27.1472 26.065C27.2807 26.117 27.4019 26.1962 27.5031 26.2976L27.5034 26.2979L43.6007 42.399L43.6009 42.3991C43.9472 42.7453 44.3612 43.0163 44.817 43.1953C45.2728 43.3742 45.7605 43.4573 46.2499 43.4394C46.7392 43.4214 47.2196 43.3027 47.661 43.0908C48.1024 42.8789 48.4954 42.5782 48.8155 42.2076L48.8155 42.2077L48.822 42.1999C49.4055 41.4957 49.7021 40.5975 49.6528 39.6843C49.6035 38.7724 49.2128 37.9126 48.5585 37.2757C48.5576 37.2748 48.5566 37.2739 48.5557 37.273L32.7278 21.4449L32.727 21.4442C32.6183 21.3359 32.5351 21.2048 32.4835 21.0602C32.4319 20.9157 32.4132 20.7615 32.4288 20.6089C32.4443 20.4562 32.4938 20.309 32.5735 20.1778C32.6531 20.0467 32.7611 19.935 32.8895 19.8509L32.8908 19.85C36.6116 17.3939 40.943 16.0228 45.3993 15.8903C49.8556 15.7579 54.2607 16.8693 58.1208 19.1L58.871 19.5335V18.6671V6.18741V6.18626C58.8702 5.83469 58.9418 5.48671 59.0812 5.16398C59.2207 4.84124 59.4251 4.55066 59.6816 4.3103C59.9382 4.06994 60.2415 3.88495 60.5727 3.76684C60.9023 3.64927 61.2525 3.60048 61.6017 3.62345C62.263 3.6822 62.8778 3.9888 63.3226 4.48187C63.7685 4.97612 64.0105 5.62101 63.9999 6.2866L63.9998 6.2866V6.29459V17.1703V18.3777L64.8535 17.5238L74.9367 7.43674C74.9367 7.43672 74.9367 7.4367 74.9367 7.43667C75.1748 7.1986 75.4575 7.00974 75.7686 6.88089C76.0797 6.75203 76.4131 6.6857 76.7498 6.6857C77.0866 6.6857 77.42 6.75203 77.7311 6.88089C78.0422 7.00975 78.3249 7.19863 78.563 7.43674C78.8011 7.67485 78.99 7.95753 79.1189 8.26863C79.2477 8.57973 79.314 8.91317 79.314 9.24991C79.314 9.58664 79.2477 9.92008 79.1189 10.2312C78.99 10.5423 78.8011 10.825 78.563 11.0631L68.476 21.1463L67.622 21.9999H68.8295L79.7052 22L79.7132 21.9998C80.3787 21.9892 81.0236 22.2312 81.5179 22.6771C82.0108 23.1218 82.3174 23.7364 82.3763 24.3976C82.3987 24.7465 82.3496 25.0963 82.2318 25.4255C82.1135 25.7562 81.9285 26.0592 81.6882 26.3154C81.4479 26.5716 81.1574 26.7757 80.8349 26.915C80.5124 27.0542 80.1647 27.1257 79.8134 27.1249ZM79.8123 27.6249H67.9234C67.8764 27.5414 67.829 27.4581 67.781 27.375L67.348 27.6249V28.1249H67.6288C70.1185 32.6818 71.0983 37.9172 70.418 43.0751C69.7127 48.4227 67.2624 53.3881 63.4471 57.201C60.1855 60.5276 55.9401 63.6782 51.2545 66.5837L79.8123 27.6249Z" fill="#F57C00" stroke="#F57C00"/>
<path d="M61 -0.5V24H84.5" stroke="#0EC26B" stroke-width="8"/>
<path d="M62 23.5L82.5 3" stroke="#0EC26B" stroke-width="8"/>
</g>
<defs>
<clipPath id="clip0_278_45913">
<rect width="85" height="86" fill="white"/>
</clipPath>
</defs>
</svg>
