<svg width="77" height="102" viewBox="0 0 77 102" fill="none" xmlns="http://www.w3.org/2000/svg">
<path d="M31.5624 68.1094C31.5624 69.1385 31.2572 70.1445 30.6855 71.0001C30.1138 71.8558 29.3011 72.5227 28.3504 72.9165C27.3997 73.3103 26.3535 73.4133 25.3442 73.2126C24.3349 73.0118 23.4078 72.5162 22.6801 71.7886C21.9524 71.0609 21.4569 70.1338 21.2561 69.1245C21.0553 68.1152 21.1584 67.069 21.5522 66.1183C21.946 65.1675 22.6129 64.3549 23.4685 63.7832C24.3242 63.2114 25.3302 62.9063 26.3592 62.9063C27.7392 62.9063 29.0626 63.4545 30.0384 64.4302C31.0142 65.406 31.5624 66.7295 31.5624 68.1094ZM50.6405 62.9063C49.6114 62.9063 48.6054 63.2114 47.7498 63.7832C46.8941 64.3549 46.2273 65.1675 45.8334 66.1183C45.4396 67.069 45.3366 68.1152 45.5373 69.1245C45.7381 70.1338 46.2337 71.0609 46.9613 71.7886C47.689 72.5162 48.6161 73.0118 49.6254 73.2126C50.6347 73.4133 51.6809 73.3103 52.6316 72.9165C53.5824 72.5227 54.395 71.8558 54.9667 71.0001C55.5385 70.1445 55.8436 69.1385 55.8436 68.1094C55.8436 66.7295 55.2954 65.406 54.3197 64.4302C53.3439 63.4545 52.0205 62.9063 50.6405 62.9063ZM76.6561 78.5157C76.6558 82.9351 75.3567 87.257 72.9203 90.9442C70.4839 94.6314 67.0176 97.5213 62.9522 99.2546C58.8868 100.988 54.4017 101.488 50.0543 100.693C45.7069 99.8987 41.689 97.8437 38.4999 94.7841C36.3523 96.8563 33.8147 98.4815 31.0343 99.5655C28.2538 100.65 25.2859 101.171 22.3024 101.099C19.319 101.027 16.3795 100.364 13.6544 99.1478C10.9292 97.9314 8.47267 96.1861 6.42713 94.0132C4.3816 91.8402 2.78778 89.2828 1.73811 86.4892C0.688435 83.6956 0.203786 80.7215 0.312265 77.7391C0.420743 74.7568 1.12019 71.8257 2.37005 69.1158C3.61991 66.4058 5.39531 63.971 7.59331 61.9524C8.0369 58.8251 8.95512 55.7839 10.3163 52.9336C2.078 36.5004 -2.89532 14.6733 2.78909 5.273C3.6352 3.79278 4.86258 2.56638 6.34348 1.72146C7.82439 0.876539 9.50468 0.443973 11.2095 0.468784C17.3318 0.468784 22.4829 5.62421 27.0096 16.2343C29.7066 22.5734 31.7141 29.8144 33.08 35.6332C36.6654 34.9993 40.3343 34.9993 43.9198 35.6332C45.2769 29.8144 47.2845 22.5734 49.9901 16.2343C54.4995 5.62421 59.6679 0.468784 65.7903 0.468784C67.4951 0.443973 69.1754 0.876539 70.6563 1.72146C72.1372 2.56638 73.3645 3.79278 74.2107 5.273C79.8951 14.6733 74.9217 36.5004 66.6835 52.9336C68.04 55.7789 68.9552 58.8142 69.3978 61.935C71.6922 64.0436 73.5225 66.6067 74.7722 69.4613C76.0218 72.316 76.6634 75.3995 76.6561 78.5157ZM50.5928 37.5974C55.0921 39.4823 59.0847 42.3995 62.2478 46.1132C65.128 39.6967 67.2847 32.9794 68.678 26.0855C70.1912 18.2244 70.0438 11.7769 68.2748 8.86316C68.0501 8.40265 67.6945 8.01872 67.2525 7.75954C66.8105 7.50037 66.3018 7.37747 65.7903 7.40628C62.9242 7.40628 59.4945 11.6121 56.3726 18.9485C53.8014 24.9928 51.8849 32.0084 50.5928 37.5974ZM14.7519 46.1132C17.915 42.3995 21.9076 39.4823 26.4069 37.5974C25.1062 32.0084 23.1983 24.9928 20.6271 18.9529C17.5053 11.6121 14.0755 7.40628 11.2095 7.40628C10.6979 7.37747 10.1892 7.50037 9.74724 7.75954C9.30524 8.01872 8.94963 8.40265 8.72499 8.86316C6.95593 11.7856 6.80851 18.2461 8.32175 26.0855C9.7151 32.9794 11.8718 39.6967 14.7519 46.1132ZM69.7186 78.5157C69.7244 76.1882 69.2076 73.8891 68.2066 71.7879C67.2055 69.6867 65.7456 67.8369 63.9345 66.375C63.5772 66.0848 63.2813 65.7265 63.0639 65.3208C62.8465 64.915 62.7121 64.4701 62.6684 64.012C62.0875 58.0048 59.2903 52.4292 54.8221 48.3723C50.3539 44.3153 44.5351 42.0678 38.4999 42.0678C32.4647 42.0678 26.6458 44.3153 22.1776 48.3723C17.7094 52.4292 14.9122 58.0048 14.3314 64.012C14.2877 64.4701 14.1532 64.915 13.9358 65.3208C13.7185 65.7265 13.4225 66.0848 13.0653 66.375C11.4182 67.6895 10.0544 69.3237 9.05597 71.1794C8.05753 73.0351 7.44515 75.0737 7.25574 77.1724C7.06632 79.271 7.3038 81.3864 7.95386 83.3908C8.60392 85.3952 9.65309 87.2473 11.0382 88.8354C12.4232 90.4235 14.1155 91.7146 16.013 92.6311C17.9104 93.5476 19.9738 94.0704 22.0788 94.1681C24.1837 94.2657 26.2867 93.9361 28.2608 93.1992C30.235 92.4622 32.0395 91.3332 33.5656 89.8802L29.3424 86.3724C28.9922 86.0808 28.7029 85.7232 28.4909 85.3198C28.2789 84.9165 28.1485 84.4753 28.107 84.0216C28.0656 83.5678 28.1139 83.1103 28.2492 82.6752C28.3845 82.2401 28.6042 81.836 28.8958 81.4858C29.1873 81.1356 29.545 80.8463 29.9483 80.6343C30.3517 80.4223 30.7928 80.2919 31.2466 80.2504C31.7003 80.209 32.1578 80.2573 32.5929 80.3926C33.028 80.5279 33.4322 80.7476 33.7824 81.0392L38.4999 84.9762L43.2174 81.0522C43.9246 80.4634 44.8368 80.1797 45.7532 80.2634C46.6696 80.3472 47.5152 80.7916 48.104 81.4988C48.6928 82.206 48.9765 83.1182 48.8927 84.0346C48.809 84.951 48.3646 85.7966 47.6574 86.3854L43.4342 89.8932C45.6546 91.9745 48.435 93.3613 51.4333 93.8831C54.4316 94.4048 57.517 94.0387 60.31 92.8297C63.1029 91.6208 65.4815 89.6217 67.1531 87.0786C68.8248 84.5354 69.7165 81.559 69.7186 78.5157Z" fill="black"/>
<path d="M46 81H32L38.5 90L46 81Z" fill="black"/>
</svg>
